HIERARCHY
ROOT joint_Root
{
	OFFSET 0.0 0.0 0.0
	CHANNELS 6 Xposition Yposition Zposition Zrotation Xrotation Yrotation 
	JOINT Hips
	{
		OFFSET -17.1583 93.1646 452.98
		CHANNELS 6 Xposition Yposition Zposition Zrotation Xrotation Yrotation 
		JOINT Spine
		{
			OFFSET 15.7357 0.0 0.0
			CHANNELS 6 Xposition Yposition Zposition Zrotation Xrotation Yrotation 
			JOINT Chest
			{
				OFFSET 8.98455 -0.406207 0.0
				CHANNELS 6 Xposition Yposition Zposition Zrotation Xrotation Yrotation 
				JOINT Neck
				{
					OFFSET 16.3773 0.0 0.0
					CHANNELS 6 Xposition Yposition Zposition Zrotation Xrotation Yrotation 
					JOINT Head
					{
						OFFSET 6.45672 0.0 0.0
						CHANNELS 6 Xposition Yposition Zposition Zrotation Xrotation Yrotation 
						End Site
						{
							OFFSET 0.0 0.0 0.0
						}
					}
				}
				JOINT Shoulder_L
				{
					OFFSET 12.9942 -0.242716 4.98039
					CHANNELS 6 Xposition Yposition Zposition Zrotation Xrotation Yrotation 
					JOINT UpperArm_L
					{
						OFFSET 5.34809 0.0 0.0
						CHANNELS 6 Xposition Yposition Zposition Zrotation Xrotation Yrotation 
						JOINT LowerArm_L
						{
							OFFSET 24.3286 1.87007e-05 0.0
							CHANNELS 6 Xposition Yposition Zposition Zrotation Xrotation Yrotation 
							JOINT Hand_L
							{
								OFFSET 22.2916 0.0 0.0
								CHANNELS 6 Xposition Yposition Zposition Zrotation Xrotation Yrotation 
								End Site
								{
									OFFSET 0.0 0.0 0.0
								}
							}
						}
					}
				}
				JOINT Shoulder_R
				{
					OFFSET 12.9945 -0.242716 -4.98039
					CHANNELS 6 Xposition Yposition Zposition Zrotation Xrotation Yrotation 
					JOINT UpperArm_R
					{
						OFFSET -5.34813 0.0 0.0
						CHANNELS 6 Xposition Yposition Zposition Zrotation Xrotation Yrotation 
						JOINT LowerArm_R
						{
							OFFSET -24.3289 0.000322201 0.0
							CHANNELS 6 Xposition Yposition Zposition Zrotation Xrotation Yrotation 
							JOINT Hand_R
							{
								OFFSET -22.2915 -0.000108084 0.0
								CHANNELS 6 Xposition Yposition Zposition Zrotation Xrotation Yrotation 
								End Site
								{
									OFFSET 0.0 0.0 0.0
								}
							}
						}
					}
				}
			}
		}
		JOINT UpperLeg_L
		{
			OFFSET -2.19248 -6.46944 0.0
			CHANNELS 6 Xposition Yposition Zposition Zrotation Xrotation Yrotation 
			JOINT LowerLeg_L
			{
				OFFSET 39.0811 0.0 -1.23785e-05
				CHANNELS 6 Xposition Yposition Zposition Zrotation Xrotation Yrotation 
				JOINT Foot_L
				{
					OFFSET 40.9854 0.0 -1.26872e-05
					CHANNELS 6 Xposition Yposition Zposition Zrotation Xrotation Yrotation 
					JOINT Toes_L
					{
						OFFSET 11.7543 0.0 0.0
						CHANNELS 6 Xposition Yposition Zposition Zrotation Xrotation Yrotation 
						End Site
						{
							OFFSET 0.0 0.0 0.0
						}
					}
				}
			}
		}
		JOINT UpperLeg_R
		{
			OFFSET -2.19251 6.46944 0.0
			CHANNELS 6 Xposition Yposition Zposition Zrotation Xrotation Yrotation 
			JOINT LowerLeg_R
			{
				OFFSET -39.0811 -0.00228153 -0.0401928
				CHANNELS 6 Xposition Yposition Zposition Zrotation Xrotation Yrotation 
				JOINT Foot_R
				{
					OFFSET -40.9854 0.0 0.0
					CHANNELS 6 Xposition Yposition Zposition Zrotation Xrotation Yrotation 
					JOINT Toes_R
					{
						OFFSET -11.7543 0.0 0.0
						CHANNELS 6 Xposition Yposition Zposition Zrotation Xrotation Yrotation 
						End Site
						{
							OFFSET 0.0 0.0 0.0
						}
					}
				}
			}
		}
	}
}
MOTION
Frames:	7
Frame Time:	0.0333333
0.000000 0.000000 0.000000 0.000000 0.000000 -0.000000 158.264000 91.645000 -139.259000 88.501300 0.998594 3.929300 15.735700 0.000005 -0.000001 71.386300 83.907900 -70.788100 8.984550 -0.406207 -0.000000 3.808940 -3.904400 1.325260 16.377300 -0.000001 -0.000001 8.011970 3.275630 -1.115000 6.456720 -0.000001 -0.000000 -5.280120 4.521450 3.469750 12.994200 -0.242716 4.980390 -93.215400 9.076780 -70.399200 5.348090 -0.000007 -0.000001 -69.705700 -10.586800 -9.738740 24.328600 0.000019 0.000005 32.194500 14.654800 -68.107600 22.291600 -0.000001 0.000005 48.535100 4.453150 17.367700 12.994500 -0.242716 -4.980390 88.929100 2.781810 -68.935800 -5.348130 -0.000001 -0.000004 -69.295700 0.131587 6.419150 -24.328900 0.000322 -0.000009 -0.620322 -4.263480 -8.272410 -22.291500 -0.000108 -0.000004 44.950700 5.533810 -7.964110 -2.192480 -6.469440 -0.000000 -177.304000 -9.999150 11.998700 39.081100 -0.000007 -0.000012 -0.010772 0.041593 14.518700 40.985400 -0.000006 -0.000013 -1.245400 19.359700 -71.701100 11.754300 -0.000000 0.000003 0.001516 0.136192 -11.053800 -2.192510 6.469440 -0.000001 -176.716000 -11.762700 158.554000 -39.081100 -0.002282 -0.040193 0.000973 0.008034 16.337900 -40.985400 0.000008 0.000006 -4.277700 -16.949200 -63.944700 -11.754300 -0.000006 -0.000006 -0.002484 0.202292 -8.365520
0.000000 0.000000 0.000000 0.000000 0.000000 -0.000000 158.447000 91.039500 -136.473000 88.467100 0.520813 3.037010 15.735700 0.000005 -0.000001 70.268400 84.094600 -69.660500 8.984550 -0.406207 -0.000000 3.379860 -4.006110 1.333150 16.377300 -0.000001 -0.000001 7.132240 3.421890 -1.156760 6.456720 -0.000001 -0.000000 -5.505150 4.673260 3.523600 12.994200 -0.242716 4.980390 -93.251300 9.296530 -70.625900 5.348090 -0.000007 -0.000001 -69.395000 -10.620300 -8.522810 24.328600 0.000019 0.000005 32.863600 14.205100 -69.200700 22.291600 -0.000001 0.000005 48.509200 4.453130 17.367900 12.994500 -0.242716 -4.980390 88.751900 3.243460 -68.939500 -5.348130 -0.000001 -0.000004 -68.797800 0.190565 5.648490 -24.328900 0.000322 -0.000009 -0.624842 -4.413420 -8.053200 -22.291500 -0.000108 -0.000004 44.818800 5.533390 -7.945320 -2.192480 -6.469440 -0.000000 -177.182000 -10.305900 12.323200 39.081100 -0.000007 -0.000012 -0.014813 0.051747 15.973500 40.985400 -0.000006 -0.000013 -1.083150 19.396600 -72.780700 11.754300 -0.000000 0.000003 0.002301 0.106732 -12.248600 -2.192510 6.469440 -0.000001 -175.976000 -9.988830 158.208000 -39.081100 -0.002282 -0.040193 0.004633 -0.006740 10.884400 -40.985400 0.000008 0.000006 -4.704910 -11.572600 -64.171900 -11.754300 -0.000006 -0.000006 -0.002244 0.199396 -8.483360
0.000000 0.000000 0.000000 0.000000 0.000000 -0.000000 158.598000 90.484900 -133.358000 88.137900 0.731008 2.179370 15.735700 0.000005 -0.000001 68.056600 84.223100 -67.247600 8.984550 -0.406207 -0.000000 2.989580 -4.346980 1.730470 16.377300 -0.000001 -0.000001 6.096880 3.352760 -1.297520 6.456720 -0.000001 -0.000000 -5.848010 4.702360 3.344880 12.994200 -0.242716 4.980390 -93.231400 9.454070 -71.031000 5.348090 -0.000007 -0.000001 -69.504600 -10.142300 -7.000470 24.328600 0.000019 0.000005 32.827300 14.533100 -68.744800 22.291600 -0.000001 0.000005 48.741200 4.457220 17.302400 12.994500 -0.242716 -4.980390 88.570800 3.705940 -68.893600 -5.348130 -0.000001 -0.000004 -68.309800 0.060878 4.935800 -24.328900 0.000322 -0.000009 -0.654122 -4.512010 -8.244770 -22.291500 -0.000108 -0.000004 44.538800 5.530970 -7.838220 -2.192480 -6.469440 -0.000000 -176.821000 -9.808780 12.421100 39.081100 -0.000007 -0.000012 -0.016983 0.052099 18.054300 40.985400 -0.000006 -0.000013 -0.749968 19.283000 -73.574000 11.754300 -0.000000 0.000003 0.002400 0.068109 -13.814400 -2.192510 6.469440 -0.000001 -175.353000 -9.182940 157.463000 -39.081100 -0.002282 -0.040193 0.004245 -0.005825 8.826750 -40.985400 0.000008 0.000006 -5.041300 -7.367630 -64.732700 -11.754300 -0.000006 -0.000006 -0.002069 0.197240 -8.571030
0.000000 0.000000 0.000000 0.000000 0.000000 -0.000000 158.756000 90.033700 -129.779000 87.717100 1.544380 1.339580 15.735700 0.000005 -0.000001 64.809300 84.356000 -63.689000 8.984550 -0.406207 -0.000000 2.505170 -4.852070 2.345570 16.377300 -0.000001 -0.000001 4.928250 3.133010 -1.457080 6.456720 -0.000001 -0.000000 -6.097740 4.494860 2.941050 12.994200 -0.242716 4.980390 -93.116800 9.331630 -71.437500 5.348090 -0.000007 -0.000001 -70.283200 -9.007410 -5.302930 24.328600 0.000019 0.000005 31.700300 15.630800 -66.430300 22.291600 -0.000001 0.000005 49.046100 4.480240 16.925600 12.994500 -0.242716 -4.980390 88.465200 3.963030 -68.810100 -5.348130 -0.000001 -0.000004 -68.022200 0.137026 4.410750 -24.328900 0.000322 -0.000009 -0.673952 -4.406560 -8.691420 -22.291500 -0.000108 -0.000004 44.215300 5.532870 -7.921940 -2.192480 -6.469440 -0.000000 -176.320000 -8.826460 12.525400 39.081100 -0.000007 -0.000012 -0.016896 0.045725 20.280200 40.985400 -0.000006 -0.000013 -0.591283 19.198200 -73.146500 11.754300 -0.000000 0.000003 -0.000081 -0.001345 -16.632100 -2.192510 6.469440 -0.000001 -174.956000 -8.812460 156.792000 -39.081100 -0.002282 -0.040193 0.002705 0.003812 9.459570 -40.985400 0.000008 0.000006 -5.959690 -6.687640 -65.356600 -11.754300 -0.000006 -0.000006 -0.001654 0.191972 -8.785230
0.000000 0.000000 0.000000 0.000000 0.000000 -0.000000 158.754000 89.794300 -125.882000 86.436100 2.196350 -0.071094 15.735700 0.000005 -0.000001 62.327300 84.826300 -60.541300 8.984550 -0.406207 -0.000000 1.482680 -4.901050 3.634070 16.377300 -0.000001 -0.000001 4.220920 2.767460 -1.766500 6.456720 -0.000001 -0.000000 -6.763220 4.029430 2.436450 12.994200 -0.242716 4.980390 -93.105700 9.517390 -71.832800 5.348090 -0.000007 -0.000001 -70.896300 -6.970010 -3.541250 24.328600 0.000019 0.000005 30.098900 17.641000 -62.397500 22.291600 -0.000001 0.000005 49.396400 4.489200 16.778300 12.994500 -0.242716 -4.980390 88.291800 4.433640 -68.904800 -5.348130 -0.000001 -0.000004 -67.463000 0.026912 4.173640 -24.328900 0.000322 -0.000009 -0.688104 -4.237560 -9.218270 -22.291500 -0.000108 -0.000004 43.898700 5.534440 -7.992320 -2.192480 -6.469440 -0.000000 -174.627000 -8.746950 11.876800 39.081100 -0.000007 -0.000012 -0.011439 0.027328 22.713100 40.985400 -0.000006 -0.000013 -0.273452 19.512400 -71.196100 11.754300 -0.000000 0.000003 -0.012138 -0.118982 -21.427400 -2.192510 6.469440 -0.000001 -173.417000 -8.546150 154.859000 -39.081100 -0.002282 -0.040193 -0.002215 0.024114 12.959000 -40.985400 0.000008 0.000006 -5.073340 -8.370500 -61.522900 -11.754300 -0.000006 -0.000006 -0.000898 0.181609 -9.206480
0.000000 0.000000 0.000000 0.000000 0.000000 -0.000000 158.727000 89.751300 -121.679000 84.789300 2.760400 -1.748540 15.735700 0.000005 -0.000001 60.233500 85.618700 -57.631700 8.984550 -0.406207 -0.000000 -0.049603 -4.526630 5.200640 16.377300 -0.000001 -0.000001 3.617780 2.322170 -2.052620 6.456720 -0.000001 -0.000000 -7.100890 3.294070 1.720420 12.994200 -0.242716 4.980390 -93.234100 9.988390 -71.955800 5.348090 -0.000007 -0.000001 -71.382900 -4.170890 -1.809200 24.328600 0.000019 0.000005 28.056800 20.482100 -56.713800 22.291600 -0.000001 0.000005 49.675000 4.527350 16.145800 12.994500 -0.242716 -4.980390 88.085200 4.969560 -68.896900 -5.348130 -0.000001 -0.000004 -66.778000 0.399632 4.034600 -24.328900 0.000322 -0.000009 -0.694891 -4.231610 -9.320810 -22.291500 -0.000108 -0.000004 43.854500 5.531990 -7.883250 -2.192480 -6.469440 -0.000000 -172.720000 -8.688040 10.240300 39.081100 -0.000007 -0.000012 -0.000217 0.000447 25.927700 40.985400 -0.000006 -0.000013 -0.146461 19.390300 -66.874900 11.754300 -0.000000 0.000003 -0.053008 -0.308343 -29.287100 -2.192510 6.469440 -0.000001 -171.310000 -8.075910 153.072000 -39.081100 -0.002282 -0.040193 -0.007664 0.037549 16.316400 -40.985400 0.000008 0.000006 -3.859970 -9.199920 -57.676600 -11.754300 -0.000006 -0.000006 -0.001783 0.193637 -8.717560
0.000000 0.000000 0.000000 0.000000 0.000000 -0.000000 158.881000 89.864600 -117.301000 83.449400 2.817140 -2.487520 15.735700 0.000005 -0.000001 61.343600 86.223300 -58.063800 8.984550 -0.406207 -0.000000 -1.018650 -3.872730 6.524540 16.377300 -0.000001 -0.000001 2.783520 2.059090 -2.094900 6.456720 -0.000001 -0.000000 -7.004030 2.626600 0.675804 12.994200 -0.242716 4.980390 -93.293500 10.160800 -71.933700 5.348090 -0.000007 -0.000001 -72.594400 -1.909270 -0.280139 24.328600 0.000019 0.000005 25.693300 24.363700 -49.388700 22.291600 -0.000001 0.000005 49.274700 4.576380 15.317100 12.994500 -0.242716 -4.980390 88.031300 5.185800 -69.178300 -5.348130 -0.000001 -0.000004 -66.770500 1.248070 3.113870 -24.328900 0.000322 -0.000009 -0.690600 -4.641280 -8.461360 -22.291500 -0.000108 -0.000004 43.539100 5.532220 -7.893280 -2.192480 -6.469440 -0.000000 -171.322000 -8.804120 8.158860 39.081100 -0.000007 -0.000012 0.014285 -0.023826 30.943900 40.985400 -0.000006 -0.000013 -0.790164 18.637800 -59.663900 11.754300 -0.000000 0.000003 -0.114471 -0.479137 -36.651200 -2.192510 6.469440 -0.000001 -169.621000 -8.477560 152.342000 -39.081100 -0.002282 -0.040193 -0.013364 0.043697 20.897200 -40.985400 0.000008 0.000006 -3.099640 -9.246920 -57.658700 -11.754300 -0.000006 -0.000006 -0.003252 0.211093 -8.007380
